<?xml version="1.0" standalone="no"?>
<!DOCTYPE svg PUBLIC "-//W3C//DTD SVG 20010904//EN"
 "http://www.w3.org/TR/2001/REC-SVG-20010904/DTD/svg10.dtd">
<svg version="1.0" xmlns="http://www.w3.org/2000/svg"
 width="804.000000pt" height="804.000000pt" viewBox="0 0 804.000000 804.000000"
 preserveAspectRatio="xMidYMid meet">
<metadata>
Created by potrace 1.11, written by Peter Selinger 2001-2013
</metadata>
<g transform="translate(0.000000,804.000000) scale(0.100000,-0.100000)"
fill="#000000" stroke="none">
<path d="M5269 8029 c-186 -27 -337 -155 -413 -349 -21 -55 -21 -58 -24 -1187
l-3 -1132 -87 91 c-308 320 -734 540 -1243 642 -287 58 -329 61 -1144 61 -821
0 -796 2 -933 -61 -89 -41 -187 -131 -231 -213 -64 -121 -61 -19 -61 -1861 0
-1842 -3 -1740 61 -1861 44 -82 142 -172 231 -213 137 -63 112 -61 933 -61
815 0 857 3 1144 61 513 103 936 323 1253 651 l77 80 3 -1131 c3 -1128 3
-1131 24 -1186 64 -164 177 -277 334 -332 64 -23 71 -23 625 -26 354 -2 589 1
640 7 201 27 360 163 431 371 18 54 19 152 19 3640 0 3488 -1 3586 -19 3640
-32 93 -64 147 -127 215 -77 81 -187 140 -294 155 -84 12 -1116 11 -1196 -1z
m-2114 -2803 c420 -78 707 -329 833 -727 53 -167 66 -261 66 -489 0 -174 -4
-221 -23 -310 -93 -437 -324 -714 -699 -840 -164 -55 -233 -62 -639 -67 l-373
-5 0 1232 0 1232 373 -5 c289 -3 392 -8 462 -21z"/>
</g>
</svg>
