<?xml version="1.0" encoding="UTF-8"?>
<svg width="899px" height="736px" viewBox="0 0 899 736" xmlns="http://www.w3.org/2000/svg" xmlns:xlink="http://www.w3.org/1999/xlink" version="1.1">
 <!-- Generated by Pixelmator Pro 2.0.6 -->
 <g id="Light-Mode">
  <g id="widgetSlideSingle">
   <path id="outside" d="M60.102 10 C31.879 10 9 32.879 9 61.102 L9 675.601 C9 703.824 31.879 726.703 60.102 726.703 L839.868 726.703 C868.091 726.703 890.97 703.824 890.97 675.601 L890.97 61.102 C890.97 32.879 868.091 10 839.868 10 Z" fill="none" stroke="#09cc39" stroke-width="15" stroke-opacity="1" stroke-linejoin="round" stroke-linecap="round"/>
   <path id="Small2" d="M585.99 393 C577.706 393 570.99 399.716 570.99 408 L570.99 608 C570.99 616.284 577.706 623 585.99 623 L786.079 623 C794.363 623 801.079 616.284 801.079 608 L801.079 408 C801.079 399.716 794.363 393 786.079 393 Z" fill="#09cc39" fill-opacity="0.15" stroke="none"/>
   <path id="Small2-1" d="M714.085 473 L677.28 526.887 651.048 490.962 614.243 544.697 761.463 544.697 Z" fill="#09cc39" fill-opacity="0.45" stroke="none"/>
   <path id="Small1" d="M585.99 114 C577.706 114 570.99 120.716 570.99 129 L570.99 329 C570.99 337.284 577.706 344 585.99 344 L786.079 344 C794.363 344 801.079 337.284 801.079 329 L801.079 129 C801.079 120.716 794.363 114 786.079 114 Z" fill="#09cc39" fill-opacity="0.15" stroke="none"/>
   <path id="Small1-1" d="M714.085 194 L677.28 247.887 651.048 211.962 614.243 265.697 761.463 265.697 Z" fill="#09cc39" fill-opacity="0.45" stroke="none"/>
   <path id="Big" d="M114 114 C105.716 114 99 120.716 99 129 L99 608 C99 616.284 105.716 623 114 623 L507.079 623 C515.363 623 522.079 616.284 522.079 608 L522.079 129 C522.079 120.716 515.363 114 507.079 114 Z" fill="#09cc39" fill-opacity="0.15" stroke="none"/>
   <path id="Path-copy" d="M363.751 298 L291.312 404.06 239.682 333.353 167.243 439.114 457 439.114 Z" fill="#09cc39" fill-opacity="0.45" stroke="none"/>
  </g>
 </g>
</svg>
