<?xml version="1.0" encoding="UTF-8"?>
<svg width="899px" height="736px" viewBox="0 0 899 736" xmlns="http://www.w3.org/2000/svg" xmlns:xlink="http://www.w3.org/1999/xlink" version="1.1">
 <!-- Generated by Pixelmator Pro 2.0.6 -->
 <g id="Light-Mode">
  <g id="widgetSlideSoloLm">
   <path id="outside" d="M60.102 10 C31.879 10 9 32.879 9 61.102 L9 675.601 C9 703.824 31.879 726.703 60.102 726.703 L839.868 726.703 C868.091 726.703 890.97 703.824 890.97 675.601 L890.97 61.102 C890.97 32.879 868.091 10 839.868 10 Z" fill="none" stroke="#09cc39" stroke-width="15" stroke-opacity="1" stroke-linejoin="round" stroke-linecap="round"/>
   <path id="Big" d="M114 114 C105.716 114 99 120.716 99 129 L99 608 C99 616.284 105.716 623 114 623 L785 623 C793.284 623 800 616.284 800 608 L800 129 C800 120.716 793.284 114 785 114 Z" fill="#09cc39" fill-opacity="0.246" stroke="none"/>
   <path id="Path-copy-1" d="M511.764 283.267 L424.575 410.922 362.432 325.819 275.243 453.114 624 453.114 Z" fill="#09cc39" fill-opacity="0.547" stroke="none"/>
  </g>
 </g>
</svg>
