<?xml version="1.0" encoding="UTF-8"?>
<svg width="3354px" height="2097px" viewBox="0 0 3354 2097" xmlns="http://www.w3.org/2000/svg" xmlns:xlink="http://www.w3.org/1999/xlink" version="1.1">
 <!-- Generated by Pixelmator Pro 2.0.3 -->
 <g id="V2-Light">
  <g id="Others"/>
  <g id="Light-01">
   <path id="Path-copy-2" d="M2768.201 3266.692 C2614.599 3279.868 1626.569 3210.729 1519.785 2707.321 1420.937 2241.321 2485.645 2014.939 2485.645 2014.939 2485.645 2014.939 3708.537 1772.503 3633.934 2442.394 3555.857 3143.473 2921.803 3253.517 2768.201 3266.692 Z" fill="#d3d8df" fill-opacity="0.503" stroke="none"/>
   <path id="Path" d="M3908.643 2962.031 C3780.302 3047.447 2880.761 3461.945 2545.058 3071.912 2234.302 2710.862 3058.964 2000.381 3058.964 2000.381 3058.964 2000.381 4014.602 1199.758 4271.324 1822.986 4539.999 2475.229 4036.984 2876.616 3908.643 2962.031 Z" fill="#ffffff" fill-opacity="0.553" stroke="none"/>
   <path id="Path-1" d="M-84.024 2005.246 C44.317 1919.83 943.858 1505.332 1279.561 1895.365 1590.318 2256.415 765.655 2966.895 765.655 2966.895 765.655 2966.895 -189.983 3767.519 -446.705 3144.291 -715.379 2492.047 -212.365 2090.661 -84.024 2005.246 Z" fill="#ffffff" fill-opacity="0.553" stroke="none"/>
   <path id="Path-copy" d="M-40.041 1689.284 C-15.382 1679.894 150.472 1644.817 191.715 1722.643 229.893 1794.686 65.315 1882.003 65.315 1882.003 65.315 1882.003 -124.541 1979.4 -143.76 1865.647 -163.874 1746.597 -64.701 1698.675 -40.041 1689.284 Z" fill="#ffffff" fill-opacity="0.553" stroke="none"/>
  </g>
 </g>
</svg>
