<?xml version="1.0" encoding="UTF-8"?>
<svg width="3354px" height="2097px" viewBox="0 0 3354 2097" xmlns="http://www.w3.org/2000/svg" xmlns:xlink="http://www.w3.org/1999/xlink" version="1.1">
 <!-- Generated by Pixelmator Pro 2.0.3 -->
 <g id="Red">
  <g id="light">
   <path id="3" d="M2627.451 2097.163 C2491.434 2169.734 1700.297 2765.625 1884.787 3246.027 2055.567 3690.73 3071.907 3300.983 3071.907 3300.983 3071.907 3300.983 4229.677 2838.584 3802.401 2317.283 3355.233 1771.712 2763.468 2024.592 2627.451 2097.163 Z" fill="#e8371e" fill-opacity="0.06" stroke="none"/>
   <path id="3-copy-1" d="M3396.451 1606.163 C3260.434 1678.734 2469.297 2274.625 2653.787 2755.027 2824.567 3199.73 3840.907 2809.983 3840.907 2809.983 3840.907 2809.983 4998.677 2347.584 4571.401 1826.283 4124.233 1280.712 3532.468 1533.592 3396.451 1606.163 Z" fill="#e8371e" fill-opacity="0.06" stroke="none"/>
   <path id="2" d="M3366.976 1319.246 C3495.317 1233.83 4394.858 819.332 4730.561 1209.365 5041.318 1570.415 4216.655 2280.895 4216.655 2280.895 4216.655 2280.895 3261.017 3081.519 3004.295 2458.291 2735.621 1806.047 3238.635 1404.661 3366.976 1319.246 Z" fill="#e8371e" fill-opacity="0.06" stroke="none"/>
   <path id="3-copy-1-1" d="M62.976 -1230.292 C198.993 -1157.721 990.13 -561.83 805.64 -81.428 634.86 363.275 -381.481 -26.472 -381.481 -26.472 -381.481 -26.472 -1539.25 -488.87 -1111.974 -1010.172 -664.806 -1555.743 -73.041 -1302.863 62.976 -1230.292 Z" fill="#e8371e" fill-opacity="0.06" stroke="none"/>
   <path id="2-1" d="M493.423 50.32 C616.743 -42.197 1307.455 -752.056 1051.675 -1198.597 814.901 -1611.955 -129.888 -1071.378 -129.888 -1071.378 -129.888 -1071.378 -1203.334 -437.379 -701.369 12.455 -176.034 483.232 370.103 142.837 493.423 50.32 Z" fill="#e8371e" fill-opacity="0.06" stroke="none"/>
  </g>
 </g>
</svg>
