<?xml version="1.0" encoding="UTF-8"?>
<svg width="3354px" height="2097px" viewBox="0 0 3354 2097" xmlns="http://www.w3.org/2000/svg" xmlns:xlink="http://www.w3.org/1999/xlink" version="1.1">
 <!-- Generated by Pixelmator Pro 2.0.3 -->
 <g id="V2-Dark">
  <g id="V2-Light"/>
  <g id="Light-01-green">
   <g id="New-Group">
    <path id="3" d="M2701.751 17.083 C2841.644 81.869 3793.989 353.939 4066.102 -82.841 4317.994 -487.164 3394.387 -1063.185 3394.387 -1063.185 3394.387 -1063.185 2327.561 -1708.262 2169.159 -1053.107 2003.382 -367.45 2561.858 -47.703 2701.751 17.083 Z" fill="#74ab59" fill-opacity="0.204" stroke="none"/>
    <path id="3-copy-1" d="M3478.751 523.083 C3618.644 587.869 4570.989 859.939 4843.102 423.159 5094.994 18.836 4171.387 -557.185 4171.387 -557.185 4171.387 -557.185 3104.561 -1202.262 2946.159 -547.107 2780.382 138.55 3338.858 458.297 3478.751 523.083 Z" fill="#74ab59" fill-opacity="0.102" stroke="none"/>
   </g>
   <path id="2" d="M-84.024 2005.246 C44.317 1919.83 943.858 1505.332 1279.561 1895.365 1590.318 2256.415 765.655 2966.895 765.655 2966.895 765.655 2966.895 -189.983 3767.519 -446.705 3144.291 -715.379 2492.047 -212.365 2090.661 -84.024 2005.246 Z" fill="#74ab59" fill-opacity="0.102" stroke="none"/>
  </g>
  <g id="Dark-Green">
   <g id="New-Group-1">
    <path id="3-copy-1-1" d="M-182.324 1446.147 C-322.217 1381.361 -1274.562 1109.29 -1546.675 1546.07 -1798.567 1950.393 -874.96 2526.415 -874.96 2526.415 -874.96 2526.415 191.866 3171.492 350.268 2516.337 516.045 1830.68 -42.431 1510.932 -182.324 1446.147 Z" fill="#74ab59" fill-opacity="0.102" stroke="none"/>
   </g>
   <path id="2-1" d="M3380.45 -36.016 C3252.109 49.4 2352.568 463.898 2016.866 73.865 1706.109 -287.186 2530.772 -997.666 2530.772 -997.666 2530.772 -997.666 3486.409 -1798.289 3743.132 -1175.061 4011.806 -522.818 3508.792 -121.431 3380.45 -36.016 Z" fill="#74ab59" fill-opacity="0.102" stroke="none"/>
  </g>
 </g>
</svg>
