<?xml version="1.0" encoding="UTF-8"?>
<svg width="3354px" height="2097px" viewBox="0 0 3354 2097" xmlns="http://www.w3.org/2000/svg" xmlns:xlink="http://www.w3.org/1999/xlink" version="1.1">
 <!-- Generated by Pixelmator Pro 2.0.3 -->
 <g id="V2-Dark">
  <g id="Dark-BG">
   <path id="Path-copy-2" d="M2768.201 3266.692 C2614.599 3279.868 1626.569 3210.729 1519.785 2707.321 1420.937 2241.321 2485.645 2014.939 2485.645 2014.939 2485.645 2014.939 3708.537 1772.503 3633.934 2442.394 3555.857 3143.473 2921.803 3253.517 2768.201 3266.692 Z" fill="#03101f" fill-opacity="0.551" stroke="none"/>
   <path id="Path" d="M3908.643 2822.031 C3780.302 2907.447 2880.761 3321.945 2545.058 2931.912 2234.302 2570.862 3058.964 1860.381 3058.964 1860.381 3058.964 1860.381 4014.602 1059.758 4271.324 1682.986 4539.999 2335.229 4036.984 2736.616 3908.643 2822.031 Z" fill="#06386d" fill-opacity="0.446" stroke="none"/>
   <path id="Path-copy-6" d="M-232.477 519.643 C-383.861 548.802 -1373.705 583.319 -1532.524 93.831 -1679.541 -359.284 -644.33 -695.718 -644.33 -695.718 -644.33 -695.718 546.522 -1064.653 542.35 -390.633 537.984 314.766 -81.094 490.484 -232.477 519.643 Z" fill="#03101f" fill-opacity="0.55" stroke="none"/>
   <path id="Path-copy-5" d="M818.837 20.297 C686.201 98.878 -233.8 465.73 -548.63 58.662 -840.065 -318.157 20.651 -984.504 20.651 -984.504 20.651 -984.504 1016.881 -1734.016 1240.634 -1098.206 1474.804 -432.795 951.472 -58.285 818.837 20.297 Z" fill="#06386d" fill-opacity="0.547" stroke="none"/>
  </g>
 </g>
</svg>
